<?xml version="1.0" encoding="utf-8"?>
<!-- Generator: Adobe Illustrator 24.1.1, SVG Export Plug-In . SVG Version: 6.00 Build 0)  -->
<svg version="1.1" id="Layer_1" xmlns="http://www.w3.org/2000/svg" xmlns:xlink="http://www.w3.org/1999/xlink" x="0px" y="0px"
	 viewBox="0 0 501 369" style="enable-background:new 0 0 501 369;" xml:space="preserve">
<style type="text/css">
	.st0{fill:url(#SVGID_1_);}
	.st1{fill:url(#SVGID_2_);}
	.st2{opacity:0.7;}
	.st3{fill:none;stroke:#FFFFFF;stroke-width:0.6532;stroke-miterlimit:10;}
	.st4{fill:none;stroke:#FFFFFF;stroke-width:0.6396;stroke-miterlimit:10;}
	.st5{fill:none;stroke:#FFFFFF;stroke-width:0.626;stroke-miterlimit:10;}
	.st6{fill:none;stroke:#FFFFFF;stroke-width:0.6124;stroke-miterlimit:10;}
	.st7{fill:none;stroke:#FFFFFF;stroke-width:0.5988;stroke-miterlimit:10;}
	.st8{fill:none;stroke:#FFFFFF;stroke-width:0.5852;stroke-miterlimit:10;}
	.st9{fill:none;stroke:#FFFFFF;stroke-width:0.5715;stroke-miterlimit:10;}
	.st10{fill:none;stroke:#FFFFFF;stroke-width:0.5579;stroke-miterlimit:10;}
	.st11{fill:none;stroke:#FFFFFF;stroke-width:0.5443;stroke-miterlimit:10;}
	.st12{fill:none;stroke:#FFFFFF;stroke-width:0.5307;stroke-miterlimit:10;}
	.st13{fill:none;stroke:#FFFFFF;stroke-width:0.5171;stroke-miterlimit:10;}
	.st14{fill:none;stroke:#FFFFFF;stroke-width:0.5035;stroke-miterlimit:10;}
	.st15{fill:none;stroke:#FFFFFF;stroke-width:0.4899;stroke-miterlimit:10;}
	.st16{fill:none;stroke:#FFFFFF;stroke-width:0.4763;stroke-miterlimit:10;}
	.st17{fill:none;stroke:#FFFFFF;stroke-width:0.4627;stroke-miterlimit:10;}
	.st18{fill:none;stroke:#FFFFFF;stroke-width:0.4491;stroke-miterlimit:10;}
	.st19{fill:none;stroke:#FFFFFF;stroke-width:0.4355;stroke-miterlimit:10;}
	.st20{fill:none;stroke:#FFFFFF;stroke-width:0.4219;stroke-miterlimit:10;}
	.st21{fill:none;stroke:#FFFFFF;stroke-width:0.4082;stroke-miterlimit:10;}
	.st22{fill:none;stroke:#FFFFFF;stroke-width:0.3946;stroke-miterlimit:10;}
	.st23{fill:none;stroke:#FFFFFF;stroke-width:0.381;stroke-miterlimit:10;}
	.st24{fill:none;stroke:#FFFFFF;stroke-width:0.3674;stroke-miterlimit:10;}
	.st25{fill:none;stroke:#FFFFFF;stroke-width:0.3538;stroke-miterlimit:10;}
	.st26{fill:none;stroke:#FFFFFF;stroke-width:0.3402;stroke-miterlimit:10;}
	.st27{fill:none;stroke:#FFFFFF;stroke-width:0.3266;stroke-miterlimit:10;}
</style>
<linearGradient id="SVGID_1_" gradientUnits="userSpaceOnUse" x1="246.9621" y1="283.7164" x2="248.9797" y2="394.6863">
	<stop  offset="0" style="stop-color:#A07FB5;stop-opacity:0.2"/>
	<stop  offset="0.3311" style="stop-color:#A07FB5;stop-opacity:0.7"/>
	<stop  offset="1" style="stop-color:#A07FB5"/>
</linearGradient>
<path class="st0" d="M480.1,246.44c5.6,4.74,11.28,8.34,16.94,10.97V368.5H246.75v0.5H-2.05V202.65c0.15,0.3,0.3,0.61,0.44,0.93
	c17.89,37.71,23.94,110.98,60.85,127.85c43.94,20.08,80.58-40.71,129.85-26.09c6.35,1.89,12.92,5.03,19.73,9.75
	c13.32,9.23,25.96,14.3,37.93,15.83c17.99,2.31,34.38-3.4,49-14.99c18.94-15,34.89-39.86,47.48-69.93c0.17-0.4,0.34-0.81,0.51-1.21
	c27.9-67.39,84.12-41.27,132.06-1.93c1.26,1.03,2.52,2.08,3.77,3.14C479.76,246.14,479.92,246.29,480.1,246.44z"/>
<linearGradient id="SVGID_2_" gradientUnits="userSpaceOnUse" x1="322.5087" y1="305.4509" x2="413.6554" y2="451.883">
	<stop  offset="0" style="stop-color:#A07FB5;stop-opacity:0.2"/>
	<stop  offset="0.3311" style="stop-color:#A07FB5;stop-opacity:0.7"/>
	<stop  offset="1" style="stop-color:#A07FB5"/>
</linearGradient>
<path class="st1" d="M497.04,244.52V368.5H246.75v0.35h-97.24c-0.01-0.12-0.01-0.23-0.01-0.35c-0.16-3.9-0.06-7.64,0.3-11.19
	c2.59-26.35,18.66-43.31,39.29-51.97c17.73-7.45,38.84-8.76,57.66-4.62c6.03,1.32,11.82,3.21,17.19,5.63
	c11.2,5.05,21.84,8.13,31.82,9.58c29.51,4.28,53.17-5.69,68.16-20.95c11.19-11.39,19.86-34.58,36.47-48.98
	c13.16-11.43,31.3-17.33,59.61-7.45c5.48,1.91,10.75,3.33,15.8,4.31C483.35,244.33,490.41,244.82,497.04,244.52z"/>
<g class="st2">
	<path class="st3" d="M-11.37,186.59c0,0,133.25-51.75,177.23,53.35c43.98,105.1,76.13,129.43,235.25,83.97
		c80.29-22.94,141.26,50.74,163.89,69.65"/>
	<path class="st4" d="M564.88,393.7c-23.48-18.44-82.75-87.37-163.13-66.1c-156.32,41.37-185.48,14.97-230.41-86.46
		C126.4,139.71-4.13,194.16-10.81,192.19"/>
	<path class="st5" d="M564.76,393.84c-24.32-17.97-81.88-82.14-162.37-62.55c-153.46,37.35-179.69,8.82-225.58-88.95
		c-45.89-97.77-173.69-40.6-187.07-44.55"/>
	<path class="st6" d="M564.64,393.98c-25.16-17.5-80.98-76.89-161.62-58.99c-150.55,33.4-173.91,2.67-220.74-91.44
		C135.45,149.43,10.36,209.31-9.7,203.39"/>
	<path class="st7" d="M564.53,394.11c-26.01-17.03-80.05-71.61-160.86-55.44c-147.59,29.54-168.12-3.48-215.91-93.93
		c-47.79-90.45-170.16-27.86-196.9-35.75"/>
	<path class="st8" d="M564.41,394.25c-26.85-16.56-79.1-66.32-160.1-51.89c-144.59,25.75-162.34-9.63-211.07-96.42
		c-48.74-86.78-168.39-21.49-201.81-31.35"/>
	<path class="st9" d="M564.29,394.39c-27.7-16.09-78.12-60.99-159.34-48.34C263.4,368.1,248.4,330.26,198.71,247.14
		c-49.69-83.12-166.62-15.11-206.73-26.95"/>
	<path class="st10" d="M564.17,394.52c-28.54-15.62-77.12-55.64-158.58-44.79c-138.45,18.44-150.76-21.94-201.41-101.4
		c-50.64-79.46-164.85-8.74-211.65-22.55"/>
	<path class="st11" d="M564.05,394.66c-29.38-15.15-76.09-50.25-157.82-41.23c-135.33,14.92-144.98-28.09-196.57-103.89
		c-51.59-75.8-163.08-2.37-216.56-18.15"/>
	<path class="st12" d="M563.93,394.8c-30.23-14.68-75.05-44.82-157.06-37.68c-132.18,11.5-139.19-34.24-191.74-106.38
		c-52.54-72.13-161.31,4.01-221.48-13.75"/>
	<path class="st13" d="M563.81,394.93c-31.07-14.21-73.99-39.34-156.31-34.13c-129,8.16-133.41-40.39-186.9-108.86
		c-53.49-68.47-159.54,10.38-226.39-9.35"/>
	<path class="st14" d="M563.69,395.07c-31.92-13.75-72.92-33.81-155.55-30.58c-125.79,4.93-127.62-46.55-182.07-111.35
		c-54.44-64.81-157.77,16.75-231.31-4.95"/>
	<path class="st15" d="M563.58,395.21c-32.76-13.28-71.83-28.24-154.79-27.03c-122.58,1.78-121.84-52.7-177.23-113.84
		c-55.39-61.15-156,23.12-236.23-0.55"/>
	<path class="st16" d="M563.46,395.34c-33.6-12.81-70.75-22.6-154.03-23.48c-119.35-1.26-116.05-58.85-172.4-116.33
		c-56.35-57.48-154.23,29.5-241.14,3.85"/>
	<path class="st17" d="M563.34,395.48c-34.45-12.34-69.65-16.89-153.27-19.92c-116.13-4.21-110.27-65-167.56-118.82
		c-57.3-53.82-152.46,35.87-246.06,8.25"/>
	<path class="st18" d="M563.22,395.62c-35.29-11.87-68.57-11.12-152.51-16.37c-112.9-7.06-104.48-71.15-162.73-121.31
		C189.73,207.78,97.28,300.18-3,270.59"/>
	<path class="st19" d="M563.1,395.75c-36.14-11.4-67.49-5.27-151.76-12.82c-109.7-9.82-98.7-77.3-157.9-123.8
		c-59.2-46.49-148.92,48.62-255.89,17.06"/>
	<path class="st20" d="M562.98,395.89c-36.98-10.93-66.43,0.65-151-9.27c-106.51-12.5-92.91-83.46-153.06-126.29
		c-60.15-42.83-147.16,54.99-260.81,21.46"/>
	<path class="st21" d="M562.86,396.03c-37.82-10.46-65.4,6.67-150.24-5.72C309.27,375.22,325.5,300.7,264.4,261.53
		c-61.1-39.17-145.39,61.36-265.72,25.86"/>
	<path class="st22" d="M562.74,396.16c-38.67-9.99-64.39,12.77-149.48-2.17c-100.23-17.59-81.34-95.76-143.39-131.27
		c-62.05-35.51-143.62,67.74-270.64,30.26"/>
	<path class="st23" d="M562.63,396.3c-39.51-9.52-63.43,18.97-148.72,1.39c-97.16-20.03-75.56-101.91-138.56-133.76
		S133.5,338.04-0.21,298.59"/>
	<path class="st24" d="M562.51,396.44c-40.36-9.05-62.51,25.26-147.96,4.94c-94.14-22.39-69.77-108.06-133.72-136.24
		c-63.95-28.18-140.08,80.48-280.47,39.06"/>
	<path class="st25" d="M562.39,396.57c-41.2-8.59-61.66,31.65-147.2,8.49c-91.19-24.69-63.99-114.22-128.89-138.73
		S147.99,353.18,0.91,309.79"/>
	<path class="st26" d="M562.27,396.71c-42.04-8.12-60.88,38.15-146.45,12.04c-88.31-26.94-58.2-120.37-124.05-141.22
		s-136.54,93.23-290.3,47.86"/>
	<path class="st27" d="M562.15,396.85c-42.89-7.65-60.17,44.74-145.69,15.59c-85.52-29.15-52.41-126.52-119.22-143.71
		s-134.77,99.6-295.22,52.26"/>
</g>
</svg>
