<svg xmlns="http://www.w3.org/2000/svg" viewBox="0 0 173.72 170.08"><defs><style>.cls-1{isolation:isolate;}.cls-2{fill:#977eb3;}.cls-3{fill:#51519e;}.cls-4{fill:#00b6ea;opacity:0.3;mix-blend-mode:multiply;}.cls-5{fill:none;stroke:#fff;stroke-miterlimit:10;stroke-width:3px;}</style></defs><g class="cls-1"><g id="Layer_1" data-name="Layer 1"><path class="cls-2" d="M813.73,432.4c.16-2.13.27-4.27.27-6.44s-.11-4.31-.27-6.44c-14.8-8.14-17.35-17.1-8.66-31.12a84.37,84.37,0,0,0-6.25-10.47c-16.71.61-23.24-5.79-22.63-22.15a88,88,0,0,0-10.69-6.13c-14.32,8.51-23.47,6-31.78-8.47-2.18-.16-4.37-.26-6.58-.26s-4.41.1-6.58.26c-8.31,14.49-17.46,17-31.78,8.47a87.42,87.42,0,0,0-10.7,6.13c.62,16.36-5.91,22.76-22.62,22.15a85.68,85.68,0,0,0-6.26,10.47c8.7,14,6.15,23-8.65,31.12-.16,2.13-.27,4.27-.27,6.44s.11,4.31.27,6.44c14.8,8.14,17.35,17.1,8.65,31.12A84.81,84.81,0,0,0,655.46,474c16.71-.6,23.24,5.8,22.62,22.15a87.42,87.42,0,0,0,10.7,6.13c14.32-8.51,23.47-6,31.78,8.47,2.17.16,4.36.27,6.58.27s4.4-.11,6.58-.27c8.31-14.48,17.46-17,31.78-8.47a88,88,0,0,0,10.69-6.13c-.61-16.35,5.92-22.75,22.63-22.15a83.52,83.52,0,0,0,6.25-10.46C796.38,449.5,798.93,440.54,813.73,432.4Zm-86.59,36c-23.93,0-43.33-19-43.33-42.42s19.4-42.42,43.33-42.42,43.33,19,43.33,42.42S751.07,468.38,727.14,468.38Z" transform="translate(-640.28 -340.92)"/><path class="cls-3" d="M727.14,370.12c-31.5,0-57,25-57,55.84s25.53,55.83,57,55.83,57-25,57-55.83S758.63,370.12,727.14,370.12Zm0,98.26c-23.93,0-43.33-19-43.33-42.42s19.4-42.42,43.33-42.42,43.33,19,43.33,42.42S751.07,468.38,727.14,468.38Z" transform="translate(-640.28 -340.92)"/><path class="cls-4" d="M813.73,432.4c.16-2.13.27-4.27.27-6.44s-.11-4.31-.27-6.44c-14.8-8.14-17.35-17.1-8.66-31.12a84.37,84.37,0,0,0-6.25-10.47c-16.71.61-23.24-5.79-22.63-22.15a88,88,0,0,0-10.69-6.13c-14.32,8.51-23.47,6-31.78-8.47-2.18-.16-4.37-.26-6.58-.26s-4.41.1-6.58.26c-8.31,14.49-17.46,17-31.78,8.47a87.42,87.42,0,0,0-10.7,6.13c.62,16.36-5.91,22.76-22.62,22.15a85.68,85.68,0,0,0-6.26,10.47c8.7,14,6.15,23-8.65,31.12-.16,2.13-.27,4.27-.27,6.44s.11,4.31.27,6.44c14.8,8.14,17.35,17.1,8.65,31.12A84.81,84.81,0,0,0,655.46,474c16.71-.6,23.24,5.8,22.62,22.15a87.42,87.42,0,0,0,10.7,6.13c14.32-8.51,23.47-6,31.78,8.47,2.17.16,4.36.27,6.58.27s4.4-.11,6.58-.27c8.31-14.48,17.46-17,31.78-8.47a88,88,0,0,0,10.69-6.13c-.61-16.35,5.92-22.75,22.63-22.15a83.52,83.52,0,0,0,6.25-10.46C796.38,449.5,798.93,440.54,813.73,432.4Zm-86.59,67.06c-41.46,0-75.07-32.91-75.07-73.5s33.61-73.5,75.07-73.5,75.07,32.9,75.07,73.5S768.6,499.46,727.14,499.46Z" transform="translate(-640.28 -340.92)"/><path class="cls-5" d="M790.06,438.13a61.13,61.13,0,0,1-5.88,16.54" transform="translate(-640.28 -340.92)"/><path class="cls-5" d="M727.14,363.17c35.42,0,64.13,28.12,64.13,62.79" transform="translate(-640.28 -340.92)"/></g></g></svg>